<svg width="108" height="108" viewBox="0 0 108 108" fill="none" xmlns="http://www.w3.org/2000/svg">
<g filter="url(#filter0_d_11_838)">
<circle cx="54" cy="50" r="50" fill="black"/>
</g>
<circle cx="54" cy="50" r="45" fill="#6037A4"/>
<circle cx="54" cy="50" r="40" fill="#938E8E" fill-opacity="0.23"/>
<g filter="url(#filter1_d_11_838)">
<mask id="path-4-outside-1_11_838" maskUnits="userSpaceOnUse" x="28" y="40" width="52" height="20" fill="black">
<rect fill="white" x="28" y="40" width="52" height="20"/>
<path d="M30 44.2L30.264 41.44H41.664L41.4 44.2L37.224 43.84L37.128 51.76L37.416 58H34.056L34.344 52.168L34.248 43.864L30 44.2ZM51.5859 44.008H46.4739L46.3299 48.424H50.9139L50.6499 50.968H46.2579L46.2339 51.76L46.5219 58H43.1619L43.4499 52.168L43.1619 41.44H51.8499L51.5859 44.008ZM53.6131 53.224C54.9731 54.584 56.3331 55.264 57.6931 55.264C58.3971 55.264 58.9571 55.104 59.3731 54.784C59.8051 54.448 60.0211 54.024 60.0211 53.512C60.0211 52.984 59.7651 52.544 59.2531 52.192C58.7411 51.824 58.1171 51.504 57.3811 51.232C56.6611 50.96 55.9411 50.656 55.2211 50.32C54.5011 49.968 53.8851 49.472 53.3731 48.832C52.8611 48.192 52.6051 47.416 52.6051 46.504C52.6051 45.064 53.2051 43.824 54.4051 42.784C55.6051 41.728 57.0291 41.2 58.6771 41.2C59.4291 41.2 60.1571 41.28 60.8611 41.44C61.5651 41.6 62.2451 41.832 62.9011 42.136L61.2691 45.64C60.8211 45.288 60.2051 44.968 59.4211 44.68C58.6531 44.376 57.9731 44.224 57.3811 44.224C56.8051 44.224 56.3331 44.368 55.9651 44.656C55.6131 44.928 55.4371 45.296 55.4371 45.76C55.4371 46.224 55.6931 46.64 56.2051 47.008C56.7171 47.36 57.3331 47.672 58.0531 47.944C58.7891 48.216 59.5171 48.52 60.2371 48.856C60.9731 49.176 61.5971 49.656 62.1091 50.296C62.6211 50.936 62.8771 51.712 62.8771 52.624C62.8771 54.128 62.2771 55.448 61.0771 56.584C59.8771 57.704 58.4771 58.264 56.8771 58.264C55.6771 58.264 54.6131 57.976 53.6851 57.4C52.8691 56.904 52.2931 56.464 51.9571 56.08L51.7411 55.816L53.6131 53.224ZM74.6854 58.12L73.5094 53.44H67.7734L66.5014 58L63.4294 57.76L65.5414 51.928L68.7574 41.608L73.0534 41.296L76.1494 51.568L78.1414 57.592L74.6854 58.12ZM70.8934 44.416H70.5814L68.5174 50.896H72.7894L70.8934 44.416Z"/>
</mask>
<path d="M30 44.2L30.264 41.44H41.664L41.4 44.2L37.224 43.84L37.128 51.76L37.416 58H34.056L34.344 52.168L34.248 43.864L30 44.2ZM51.5859 44.008H46.4739L46.3299 48.424H50.9139L50.6499 50.968H46.2579L46.2339 51.76L46.5219 58H43.1619L43.4499 52.168L43.1619 41.44H51.8499L51.5859 44.008ZM53.6131 53.224C54.9731 54.584 56.3331 55.264 57.6931 55.264C58.3971 55.264 58.9571 55.104 59.3731 54.784C59.8051 54.448 60.0211 54.024 60.0211 53.512C60.0211 52.984 59.7651 52.544 59.2531 52.192C58.7411 51.824 58.1171 51.504 57.3811 51.232C56.6611 50.96 55.9411 50.656 55.2211 50.32C54.5011 49.968 53.8851 49.472 53.3731 48.832C52.8611 48.192 52.6051 47.416 52.6051 46.504C52.6051 45.064 53.2051 43.824 54.4051 42.784C55.6051 41.728 57.0291 41.2 58.6771 41.2C59.4291 41.2 60.1571 41.28 60.8611 41.44C61.5651 41.6 62.2451 41.832 62.9011 42.136L61.2691 45.64C60.8211 45.288 60.2051 44.968 59.4211 44.68C58.6531 44.376 57.9731 44.224 57.3811 44.224C56.8051 44.224 56.3331 44.368 55.9651 44.656C55.6131 44.928 55.4371 45.296 55.4371 45.76C55.4371 46.224 55.6931 46.64 56.2051 47.008C56.7171 47.36 57.3331 47.672 58.0531 47.944C58.7891 48.216 59.5171 48.52 60.2371 48.856C60.9731 49.176 61.5971 49.656 62.1091 50.296C62.6211 50.936 62.8771 51.712 62.8771 52.624C62.8771 54.128 62.2771 55.448 61.0771 56.584C59.8771 57.704 58.4771 58.264 56.8771 58.264C55.6771 58.264 54.6131 57.976 53.6851 57.4C52.8691 56.904 52.2931 56.464 51.9571 56.08L51.7411 55.816L53.6131 53.224ZM74.6854 58.12L73.5094 53.44H67.7734L66.5014 58L63.4294 57.76L65.5414 51.928L68.7574 41.608L73.0534 41.296L76.1494 51.568L78.1414 57.592L74.6854 58.12ZM70.8934 44.416H70.5814L68.5174 50.896H72.7894L70.8934 44.416Z" fill="#F5F5F5" fill-opacity="0.83" shape-rendering="crispEdges"/>
<path d="M30 44.2L29.0045 44.1048L28.8911 45.2908L30.0788 45.1969L30 44.2ZM30.264 41.44V40.44H29.3551L29.2685 41.3448L30.264 41.44ZM41.664 41.44L42.6595 41.5352L42.7642 40.44H41.664V41.44ZM41.4 44.2L41.3141 45.1963L42.3011 45.2814L42.3955 44.2952L41.4 44.2ZM37.224 43.84L37.3099 42.8437L36.2371 42.7512L36.2241 43.8279L37.224 43.84ZM37.128 51.76L36.1281 51.7479L36.1277 51.777L36.1291 51.8061L37.128 51.76ZM37.416 58V59H38.4632L38.4149 57.9539L37.416 58ZM34.056 58L33.0572 57.9507L33.0054 59H34.056V58ZM34.344 52.168L35.3428 52.2173L35.3443 52.1869L35.3439 52.1564L34.344 52.168ZM34.248 43.864L35.2479 43.8524L35.2356 42.7828L34.1692 42.8671L34.248 43.864ZM30.9955 44.2952L31.2595 41.5352L29.2685 41.3448L29.0045 44.1048L30.9955 44.2952ZM30.264 42.44H41.664V40.44H30.264V42.44ZM40.6685 41.3448L40.4045 44.1048L42.3955 44.2952L42.6595 41.5352L40.6685 41.3448ZM41.4859 43.2037L37.3099 42.8437L37.1381 44.8363L41.3141 45.1963L41.4859 43.2037ZM36.2241 43.8279L36.1281 51.7479L38.1279 51.7721L38.2239 43.8521L36.2241 43.8279ZM36.1291 51.8061L36.4171 58.0461L38.4149 57.9539L38.1269 51.7139L36.1291 51.8061ZM37.416 57H34.056V59H37.416V57ZM35.0548 58.0493L35.3428 52.2173L33.3452 52.1187L33.0572 57.9507L35.0548 58.0493ZM35.3439 52.1564L35.2479 43.8524L33.2481 43.8756L33.3441 52.1796L35.3439 52.1564ZM34.1692 42.8671L29.9212 43.2031L30.0788 45.1969L34.3268 44.8609L34.1692 42.8671ZM51.5859 44.008V45.008H52.4883L52.5806 44.1103L51.5859 44.008ZM46.4739 44.008V43.008H45.506L45.4744 43.9754L46.4739 44.008ZM46.3299 48.424L45.3304 48.3914L45.2967 49.424H46.3299V48.424ZM50.9139 48.424L51.9085 48.5272L52.023 47.424H50.9139V48.424ZM50.6499 50.968V51.968H51.5515L51.6445 51.0712L50.6499 50.968ZM46.2579 50.968V49.968H45.2877L45.2583 50.9377L46.2579 50.968ZM46.2339 51.76L45.2343 51.7297L45.2332 51.7679L45.2349 51.8061L46.2339 51.76ZM46.5219 58V59H47.5691L47.5208 57.9539L46.5219 58ZM43.1619 58L42.1631 57.9507L42.1113 59H43.1619V58ZM43.4499 52.168L44.4487 52.2173L44.4505 52.1793L44.4495 52.1412L43.4499 52.168ZM43.1619 41.44V40.44H42.1347L42.1622 41.4668L43.1619 41.44ZM51.8499 41.44L52.8446 41.5423L52.9579 40.44H51.8499V41.44ZM51.5859 43.008H46.4739V45.008H51.5859V43.008ZM45.4744 43.9754L45.3304 48.3914L47.3293 48.4566L47.4733 44.0406L45.4744 43.9754ZM46.3299 49.424H50.9139V47.424H46.3299V49.424ZM49.9192 48.3208L49.6552 50.8648L51.6445 51.0712L51.9085 48.5272L49.9192 48.3208ZM50.6499 49.968H46.2579V51.968H50.6499V49.968ZM45.2583 50.9377L45.2343 51.7297L47.2334 51.7903L47.2574 50.9983L45.2583 50.9377ZM45.2349 51.8061L45.5229 58.0461L47.5208 57.9539L47.2328 51.7139L45.2349 51.8061ZM46.5219 57H43.1619V59H46.5219V57ZM44.1607 58.0493L44.4487 52.2173L42.4511 52.1187L42.1631 57.9507L44.1607 58.0493ZM44.4495 52.1412L44.1615 41.4132L42.1622 41.4668L42.4502 52.1948L44.4495 52.1412ZM43.1619 42.44H51.8499V40.44H43.1619V42.44ZM50.8551 41.3377L50.5911 43.9057L52.5806 44.1103L52.8446 41.5423L50.8551 41.3377ZM53.6131 53.224L54.3202 52.5169L53.4899 51.6866L52.8024 52.6385L53.6131 53.224ZM59.3731 54.784L59.9828 55.5766L59.987 55.5734L59.3731 54.784ZM59.2531 52.192L58.6694 53.004L58.6779 53.0101L58.6865 53.016L59.2531 52.192ZM57.3811 51.232L57.0277 52.1675L57.0344 52.17L57.3811 51.232ZM55.2211 50.32L54.7819 51.2184L54.79 51.2224L54.7982 51.2262L55.2211 50.32ZM53.3731 48.832L54.1539 48.2073L53.3731 48.832ZM54.4051 42.784L55.06 43.5397L55.0657 43.5347L54.4051 42.784ZM60.8611 41.44L61.0827 40.4649V40.4649L60.8611 41.44ZM62.9011 42.136L63.8076 42.5582L64.2306 41.65L63.3215 41.2287L62.9011 42.136ZM61.2691 45.64L60.6512 46.4263L61.643 47.2056L62.1756 46.0622L61.2691 45.64ZM59.4211 44.68L59.053 45.6098L59.0646 45.6144L59.0762 45.6187L59.4211 44.68ZM55.9651 44.656L56.5765 45.4473L56.5814 45.4435L55.9651 44.656ZM56.2051 47.008L55.6214 47.82L55.6299 47.8261L55.6385 47.832L56.2051 47.008ZM58.0531 47.944L57.6997 48.8795L57.7064 48.882L58.0531 47.944ZM60.2371 48.856L59.8142 49.7622L59.8262 49.7678L59.8383 49.7731L60.2371 48.856ZM62.1091 50.296L61.3282 50.9207V50.9207L62.1091 50.296ZM61.0771 56.584L61.7594 57.3151L61.7645 57.3102L61.0771 56.584ZM53.6851 57.4L54.2124 56.5503L54.2045 56.5455L53.6851 57.4ZM51.9571 56.08L51.1831 56.7132L51.1936 56.726L51.2045 56.7385L51.9571 56.08ZM51.7411 55.816L50.9304 55.2305L50.4801 55.854L50.9671 56.4492L51.7411 55.816ZM52.906 53.9311C54.375 55.4001 55.9743 56.264 57.6931 56.264V54.264C56.6918 54.264 55.5712 53.7679 54.3202 52.5169L52.906 53.9311ZM57.6931 56.264C58.5428 56.264 59.3407 56.0705 59.9828 55.5766L58.7634 53.9914C58.5734 54.1375 58.2514 54.264 57.6931 54.264V56.264ZM59.987 55.5734C60.6432 55.063 61.0211 54.3564 61.0211 53.512H59.0211C59.0211 53.6916 58.9669 53.833 58.7591 53.9946L59.987 55.5734ZM61.0211 53.512C61.0211 52.593 60.5478 51.8686 59.8196 51.368L58.6865 53.016C58.9823 53.2194 59.0211 53.375 59.0211 53.512H61.0211ZM59.8367 51.38C59.2365 50.9486 58.5284 50.5899 57.7277 50.294L57.0344 52.17C57.7057 52.4181 58.2456 52.6994 58.6694 53.004L59.8367 51.38ZM57.7345 50.2965C57.0387 50.0337 56.3419 49.7395 55.6439 49.4138L54.7982 51.2262C55.5402 51.5725 56.2834 51.8863 57.0277 52.1675L57.7345 50.2965ZM55.6603 49.4216C55.076 49.136 54.5758 48.7347 54.1539 48.2073L52.5922 49.4567C53.1943 50.2093 53.9261 50.8 54.7819 51.2184L55.6603 49.4216ZM54.1539 48.2073C53.7999 47.7647 53.6051 47.2161 53.6051 46.504H51.6051C51.6051 47.6159 51.9223 48.6193 52.5922 49.4567L54.1539 48.2073ZM53.6051 46.504C53.6051 45.3859 54.0538 44.4117 55.06 43.5397L53.7501 42.0283C52.3563 43.2363 51.6051 44.7421 51.6051 46.504H53.6051ZM55.0657 43.5347C56.077 42.6448 57.264 42.2 58.6771 42.2V40.2C56.7941 40.2 55.1331 40.8112 53.7444 42.0333L55.0657 43.5347ZM58.6771 42.2C59.3576 42.2 60.0111 42.2723 60.6394 42.4151L61.0827 40.4649C60.303 40.2877 59.5005 40.2 58.6771 40.2V42.2ZM60.6394 42.4151C61.2749 42.5595 61.8882 42.7688 62.4806 43.0433L63.3215 41.2287C62.6019 40.8952 61.8553 40.6405 61.0827 40.4649L60.6394 42.4151ZM61.9946 41.7138L60.3626 45.2178L62.1756 46.0622L63.8076 42.5582L61.9946 41.7138ZM61.8869 44.8537C61.3277 44.4143 60.6068 44.0503 59.7659 43.7413L59.0762 45.6187C59.8033 45.8857 60.3144 46.1617 60.6512 46.4263L61.8869 44.8537ZM59.7891 43.7502C58.9469 43.4168 58.1382 43.224 57.3811 43.224V45.224C57.8079 45.224 58.3592 45.3352 59.053 45.6098L59.7891 43.7502ZM57.3811 43.224C56.6349 43.224 55.9305 43.4132 55.3488 43.8685L56.5814 45.4435C56.7356 45.3228 56.9752 45.224 57.3811 45.224V43.224ZM55.3536 43.8647C54.7445 44.3354 54.4371 45.0018 54.4371 45.76H56.4371C56.4371 45.5902 56.4816 45.5206 56.5765 45.4473L55.3536 43.8647ZM54.4371 45.76C54.4371 46.6536 54.9499 47.3373 55.6214 47.82L56.7887 46.196C56.4363 45.9427 56.4371 45.7944 56.4371 45.76H54.4371ZM55.6385 47.832C56.2304 48.2389 56.9215 48.5855 57.6997 48.8795L58.4065 47.0085C57.7446 46.7585 57.2038 46.4811 56.7716 46.184L55.6385 47.832ZM57.7064 48.882C58.4163 49.1443 59.1188 49.4377 59.8142 49.7622L60.6599 47.9498C59.9153 47.6023 59.1619 47.2877 58.3997 47.006L57.7064 48.882ZM59.8383 49.7731C60.4218 50.0267 60.9156 50.405 61.3282 50.9207L62.8899 49.6713C62.2785 48.907 61.5243 48.3253 60.6358 47.9389L59.8383 49.7731ZM61.3282 50.9207C61.6823 51.3633 61.8771 51.9119 61.8771 52.624H63.8771C63.8771 51.5121 63.5599 50.5087 62.8899 49.6713L61.3282 50.9207ZM61.8771 52.624C61.8771 53.8246 61.4119 54.89 60.3896 55.8578L61.7645 57.3102C63.1422 56.006 63.8771 54.4314 63.8771 52.624H61.8771ZM60.3947 55.8529C59.3746 56.8051 58.2166 57.264 56.8771 57.264V59.264C58.7375 59.264 60.3795 58.6029 61.7594 57.3151L60.3947 55.8529ZM56.8771 57.264C55.8444 57.264 54.9667 57.0185 54.2124 56.5504L53.1577 58.2496C54.2595 58.9335 55.5097 59.264 56.8771 59.264V57.264ZM54.2045 56.5455C53.4137 56.0648 52.9432 55.6884 52.7096 55.4215L51.2045 56.7385C51.6429 57.2396 52.3244 57.7432 53.1656 58.2545L54.2045 56.5455ZM52.731 55.4468L52.515 55.1828L50.9671 56.4492L51.1831 56.7132L52.731 55.4468ZM52.5517 56.4015L54.4237 53.8095L52.8024 52.6385L50.9304 55.2305L52.5517 56.4015ZM74.6854 58.12L73.7155 58.3637L73.9372 59.2459L74.8364 59.1085L74.6854 58.12ZM73.5094 53.44L74.4792 53.1963L74.2892 52.44H73.5094V53.44ZM67.7734 53.44V52.44H67.0141L66.8101 53.1713L67.7734 53.44ZM66.5014 58L66.4235 58.997L67.2436 59.061L67.4646 58.2687L66.5014 58ZM63.4294 57.76L62.4891 57.4195L62.0418 58.6546L63.3515 58.757L63.4294 57.76ZM65.5414 51.928L66.4816 52.2685L66.4893 52.2472L66.4961 52.2255L65.5414 51.928ZM68.7574 41.608L68.6849 40.6106L68.0054 40.66L67.8027 41.3105L68.7574 41.608ZM73.0534 41.296L74.0108 41.0074L73.7797 40.2406L72.9809 40.2986L73.0534 41.296ZM76.1494 51.568L75.1919 51.8566L75.1958 51.8693L75.1999 51.882L76.1494 51.568ZM78.1414 57.592L78.2924 58.5805L79.4624 58.4018L79.0908 57.278L78.1414 57.592ZM70.8934 44.416L71.8531 44.1352L71.6427 43.416H70.8934V44.416ZM70.5814 44.416V43.416H69.8504L69.6285 44.1125L70.5814 44.416ZM68.5174 50.896L67.5645 50.5925L67.1494 51.896H68.5174V50.896ZM72.7894 50.896V51.896H74.1239L73.7491 50.6152L72.7894 50.896ZM75.6552 57.8763L74.4792 53.1963L72.5395 53.6837L73.7155 58.3637L75.6552 57.8763ZM73.5094 52.44H67.7734V54.44H73.5094V52.44ZM66.8101 53.1713L65.5381 57.7313L67.4646 58.2687L68.7366 53.7087L66.8101 53.1713ZM66.5793 57.003L63.5073 56.763L63.3515 58.757L66.4235 58.997L66.5793 57.003ZM64.3696 58.1005L66.4816 52.2685L64.6011 51.5875L62.4891 57.4195L64.3696 58.1005ZM66.4961 52.2255L69.7121 41.9055L67.8027 41.3105L64.5867 51.6305L66.4961 52.2255ZM68.8298 42.6054L73.1258 42.2934L72.9809 40.2986L68.6849 40.6106L68.8298 42.6054ZM72.0959 41.5846L75.1919 51.8566L77.1068 51.2794L74.0108 41.0074L72.0959 41.5846ZM75.1999 51.882L77.1919 57.906L79.0908 57.278L77.0988 51.254L75.1999 51.882ZM77.9903 56.6035L74.5343 57.1315L74.8364 59.1085L78.2924 58.5805L77.9903 56.6035ZM70.8934 43.416H70.5814V45.416H70.8934V43.416ZM69.6285 44.1125L67.5645 50.5925L69.4702 51.1995L71.5342 44.7195L69.6285 44.1125ZM68.5174 51.896H72.7894V49.896H68.5174V51.896ZM73.7491 50.6152L71.8531 44.1352L69.9336 44.6968L71.8296 51.1768L73.7491 50.6152Z" fill="black" mask="url(#path-4-outside-1_11_838)"/>
</g>
<defs>
<filter id="filter0_d_11_838" x="0" y="0" width="108" height="108" filterUnits="userSpaceOnUse" color-interpolation-filters="sRGB">
<feFlood flood-opacity="0" result="BackgroundImageFix"/>
<feColorMatrix in="SourceAlpha" type="matrix" values="0 0 0 0 0 0 0 0 0 0 0 0 0 0 0 0 0 0 127 0" result="hardAlpha"/>
<feOffset dy="4"/>
<feGaussianBlur stdDeviation="2"/>
<feComposite in2="hardAlpha" operator="out"/>
<feColorMatrix type="matrix" values="0 0 0 0 0 0 0 0 0 0 0 0 0 0 0 0 0 0 0.25 0"/>
<feBlend mode="normal" in2="BackgroundImageFix" result="effect1_dropShadow_11_838"/>
<feBlend mode="normal" in="SourceGraphic" in2="effect1_dropShadow_11_838" result="shape"/>
</filter>
<filter id="filter1_d_11_838" x="26" y="41.2" width="56.1414" height="25.064" filterUnits="userSpaceOnUse" color-interpolation-filters="sRGB">
<feFlood flood-opacity="0" result="BackgroundImageFix"/>
<feColorMatrix in="SourceAlpha" type="matrix" values="0 0 0 0 0 0 0 0 0 0 0 0 0 0 0 0 0 0 127 0" result="hardAlpha"/>
<feOffset dy="4"/>
<feGaussianBlur stdDeviation="2"/>
<feComposite in2="hardAlpha" operator="out"/>
<feColorMatrix type="matrix" values="0 0 0 0 0 0 0 0 0 0 0 0 0 0 0 0 0 0 0.25 0"/>
<feBlend mode="normal" in2="BackgroundImageFix" result="effect1_dropShadow_11_838"/>
<feBlend mode="normal" in="SourceGraphic" in2="effect1_dropShadow_11_838" result="shape"/>
</filter>
</defs>
</svg>
